<svg width="27" height="32" viewBox="0 0 27 32" fill="none" xmlns="http://www.w3.org/2000/svg">
<path d="M17.9309 24.8997C16.4499 27.2797 14.9769 29.6361 13.5039 32.0004C13.3526 31.9058 13.2968 31.7482 13.2172 31.6142C11.8875 29.4785 10.5498 27.3349 9.2281 25.1913C9.07682 24.947 8.99719 24.9076 8.76629 25.1282C8.01783 25.8533 7.23752 26.5468 6.48906 27.2718C6.27408 27.4768 6.20242 27.4216 6.06706 27.2088C5.30268 25.9715 4.52237 24.7342 3.76595 23.4969C3.63059 23.2762 3.55097 23.2526 3.34395 23.4259C2.38847 24.214 1.4091 24.9785 0.4377 25.7508C0.318265 25.8454 0.214755 25.9794 0.0555085 26.0109C-0.0718886 25.9084 0.0555092 25.8375 0.0873585 25.7745C1.43299 23.0949 2.18145 20.2499 2.40439 17.2709C2.54771 15.4189 2.5079 13.5748 2.49198 11.7227C2.46809 9.72097 2.89806 7.82954 3.86946 6.06421C3.90131 6.00904 3.90131 5.93024 4.02074 5.91447C4.53829 6.58435 5.06381 7.27 5.67691 7.88471C5.84412 8.05021 5.69283 8.18419 5.62913 8.3024C5.17528 9.20083 4.99215 10.1308 5.31064 11.1159C5.75653 12.5029 7.20567 13.5275 8.81406 13.5511C9.24403 13.559 9.2918 13.7087 9.21218 14.0476C9.17237 14.2131 9.14052 14.3944 9.1644 14.552C9.23606 15.0249 9.02108 15.2692 8.60704 15.4898C7.60379 16.0179 6.64035 16.601 5.60524 17.1921C6.31389 17.5862 6.95088 17.996 7.63564 18.3112C8.98923 18.9259 9.8412 19.982 10.4861 21.2587C11.4735 23.221 12.1025 25.3095 12.7315 27.4058C12.9465 28.123 13.1535 28.8323 13.3685 29.5494C13.4004 29.6519 13.4083 29.7543 13.5118 29.8332C14.1329 27.8472 14.6504 25.8296 15.3671 23.8752C15.9165 22.3857 16.5057 20.9198 17.5089 19.651C17.8274 19.249 18.2096 18.9417 18.6555 18.6974C19.5393 18.2088 20.4231 17.7123 21.3547 17.2C20.877 16.9242 20.439 16.6641 19.9932 16.4119C19.6986 16.2385 19.396 16.0809 19.1014 15.9075C18.6794 15.6632 18.13 15.4977 17.8911 15.1352C17.6602 14.7805 17.7876 14.221 17.7239 13.7481C17.6841 13.4487 17.8991 13.5748 18.0026 13.5748C18.8705 13.559 19.6747 13.3147 20.3833 12.8182C21.8086 11.8252 22.2226 10.1465 21.4343 8.53095C21.2353 8.12902 21.2592 7.88471 21.5856 7.56947C22.1111 7.06509 22.5252 6.47402 22.987 5.86719C23.6319 6.97052 24.046 8.11326 24.2848 9.32693C24.4441 10.1308 24.4521 10.9425 24.46 11.7543C24.46 13.7087 24.4122 15.6632 24.5954 17.6177C24.8581 20.4863 25.6066 23.221 26.9045 25.806C26.9363 25.8769 26.9681 25.9478 27 26.0188C27 26.0267 26.992 26.0424 26.9761 26.0976C25.7738 25.144 24.5874 24.1983 23.3771 23.2289C22.5809 24.5056 21.8006 25.7587 21.0203 27.0197C20.7337 27.4768 20.7337 27.4846 20.3355 27.1142C19.5313 26.3971 18.7431 25.6563 17.9309 24.8997Z" fill="black"/>
<path d="M23.9035 1.68199C23.8159 2.14696 23.6248 2.47796 23.4337 2.80108C22.4305 4.56641 21.0291 5.98499 19.4765 7.27746C18.2821 8.27834 17.0002 9.16101 15.6068 9.86241C15.4157 9.95698 15.2723 9.97274 15.0812 9.84665C14.0143 9.18465 12.9394 9.18465 11.8724 9.84665C11.7211 9.94122 11.5938 9.99639 11.4027 9.89393C8.20977 8.17589 5.47073 5.96134 3.55181 2.85625C3.36071 2.54889 3.1935 2.22577 3.08203 1.84749C3.2572 1.82385 3.29701 1.95782 3.36868 2.02875C3.87826 2.54101 4.42766 2.96658 5.12835 3.20301C5.42295 3.29758 5.63794 3.25818 5.87681 3.03751C7.52501 1.44556 9.49966 0.45256 11.7769 0.129441C15.2405 -0.359177 18.306 0.53137 20.9097 2.87201C21.4113 3.32123 21.5387 3.36063 22.1598 3.07692C22.8365 2.77744 23.3621 2.28882 23.9035 1.68199Z" fill="black"/>
<path d="M13.4866 24.1041C13.3034 23.5367 13.1442 23.0402 12.977 22.5516C12.4833 21.0857 11.918 19.6514 10.8431 18.4771C10.3892 17.9806 9.8637 17.5629 9.21875 17.1846C9.66464 16.9325 10.0707 16.6803 10.4927 16.4596C10.8112 16.2941 10.9386 16.0577 10.9306 15.703C10.8988 14.7573 10.9545 13.8195 11.3128 12.921C11.5517 12.3221 11.9419 11.8335 12.4674 11.4552C13.1123 10.9902 13.8449 10.9902 14.4898 11.4473C15.501 12.1724 15.8991 13.2126 16.0026 14.3869C16.0425 14.8282 16.0425 15.2775 16.0265 15.7188C16.0186 16.0577 16.1539 16.2862 16.4565 16.4438C16.8705 16.6645 17.2846 16.9088 17.7544 17.1768C15.0631 18.7135 14.3624 21.4167 13.4866 24.1041Z" fill="black"/>
<path d="M10.646 11.3995C9.73828 11.9985 8.36876 11.967 7.55661 11.3523C6.89573 10.8479 6.75241 10.1071 7.18238 9.24805C8.26525 10.0598 9.40387 10.777 10.646 11.3995Z" fill="black"/>
<path d="M16.2812 11.4154C17.5393 10.7849 18.6938 10.0677 19.7687 9.24023C20.2624 10.1544 20.0395 11.0213 19.1556 11.4942C18.2081 12.0064 17.2606 11.9198 16.2812 11.4154Z" fill="black"/>
</svg>
