<svg width="34" height="39" viewBox="0 0 34 39" fill="none" xmlns="http://www.w3.org/2000/svg">
<path fill-rule="evenodd" clip-rule="evenodd" d="M12.6129 2.20527C10.2896 3.41553 8.38882 4.43965 8.38923 4.48131C8.39026 4.58881 13.9652 7.4122 14.1631 7.40532C14.2531 7.4023 14.9061 7.10173 15.6141 6.73746L16.9015 6.07527L18.3076 6.79801L19.7136 7.52088L22.0162 6.48623C25.4857 4.92717 25.846 4.75633 25.7895 4.69893C25.7146 4.62278 24.4701 3.95424 21.0939 2.17675C19.4622 1.31767 17.8785 0.47537 17.5744 0.304931C17.2704 0.134491 16.9802 -0.00261609 16.9295 3.78897e-05C16.8788 0.00269187 14.9363 0.995056 12.6129 2.20527ZM2.4229 7.48201L0.00436332 8.73127L0.00436332 14.214C0.00436332 17.2296 0.0361211 19.6968 0.0750761 19.6968C0.113896 19.6968 1.30382 19.1809 2.71929 18.5505L5.29289 17.4043V11.6251L6.55052 12.3102C7.51963 12.8377 8.48932 13.3642 9.45959 13.8895L11.111 14.7837L11.8458 14.4514C12.3067 14.2426 12.7666 14.0319 13.2256 13.8191C13.5803 13.6539 14.451 13.2618 15.1604 12.9475C15.8699 12.633 16.5266 12.3168 16.6197 12.2448C16.7434 12.1491 15.235 11.3155 11.0407 9.16167C7.87908 7.53811 5.19087 6.21489 5.0669 6.22124C4.94293 6.22758 3.75313 6.79486 2.4229 7.48201ZM26.2254 7.83283C24.5782 8.57644 23.2294 9.21457 23.2279 9.25096C23.2264 9.2873 24.1242 9.82111 25.223 10.437C26.3218 11.0531 27.2208 11.59 27.2208 11.6305C27.2208 11.6708 26.2485 12.1419 25.0603 12.6776C23.8719 13.2131 20.8682 14.5696 18.3852 15.692L10.0654 19.4527C7.9726 20.3988 6.08616 21.2515 5.87335 21.3479C1.59864 23.283 0.423692 23.82 0.262339 23.9121C0.100087 24.0049 0.0633357 24.544 0.0344568 27.2499L0 30.4771L2.16277 31.5791L4.32549 32.6811L7.32444 31.3276C8.97392 30.5833 10.3234 29.9353 10.3234 29.8875C10.3234 29.8399 10.0186 29.6413 9.64623 29.446C9.27368 29.2507 8.50466 28.8183 7.93711 28.485C7.36961 28.1517 6.80373 27.8458 6.67948 27.8052C6.55529 27.7648 6.45547 27.694 6.45749 27.6479C6.45956 27.6019 7.78016 26.9746 9.39198 26.2538C12.5226 24.8541 14.9185 23.7753 20.062 21.4493C22.362 20.4094 24.6622 19.3701 26.9628 18.3315C28.9847 17.4189 31.3355 16.3531 32.1868 15.963L33.7347 15.2537L33.7691 11.9897L33.8037 8.72587L31.6101 7.59996C30.4036 6.98077 29.3723 6.47566 29.3182 6.4775C29.2642 6.47921 27.8725 7.08904 26.2254 7.83283ZM33.147 19.608C32.8237 19.7659 32.1853 20.0616 31.7281 20.2649C31.271 20.4683 30.4036 20.8597 29.8006 21.1348L28.7041 21.6349L28.6791 24.5004C28.6653 26.0764 28.6073 27.3588 28.5502 27.3505C28.4204 27.3312 26.3655 26.2774 24.2999 25.1705C22.809 24.3718 22.7154 24.34 22.365 24.5135C22.1625 24.6139 20.952 25.1568 19.675 25.7202C18.398 26.2835 17.3116 26.7812 17.2605 26.8262C17.2095 26.8712 19.7796 28.2642 22.9719 29.9219L28.776 32.9359L31.2554 31.6533C32.6189 30.948 33.7784 30.3046 33.8318 30.2236C33.952 30.0417 33.9417 19.296 33.8214 19.3105C33.7738 19.3162 33.4702 19.4502 33.147 19.608ZM19.4171 32.2208C18.987 32.4057 18.557 32.5909 18.1272 32.7763C16.8292 33.3378 17.0835 33.3565 15.5393 32.5877C14.5107 32.0757 14.0674 31.9177 13.875 31.9944C13.7306 32.0519 12.4883 32.6108 11.1141 33.2364C9.73997 33.862 8.56799 34.3738 8.50969 34.3738C7.93315 34.3738 8.89164 34.9465 12.5903 36.8122L16.9278 39L18.7529 38.099C19.7567 37.6034 21.7813 36.6111 23.2521 35.8938C24.7228 35.1763 25.908 34.5707 25.8858 34.5478C25.8634 34.5251 24.6311 33.8923 23.1471 33.1416L20.449 31.7769L19.4171 32.2208Z" fill="black"/>
</svg>
