<svg width="33" height="35" viewBox="0 0 33 35" fill="none" xmlns="http://www.w3.org/2000/svg">
<path d="M3.41858 17.1466C-0.291403 20.8566 -0.291403 26.8717 3.41858 30.5816V30.5816C7.12856 34.2916 13.1436 34.2916 16.8536 30.5816L21.5001 25.9352L8.00006 12.5651L3.41858 17.1466Z" fill="black"/>
<path d="M22.1569 23.157L21.4949 23.819L10.1265 12.56L10.8432 11.8433L17.2072 5.47935C20.3314 2.35515 25.3967 2.35515 28.5209 5.47935C31.6451 8.60354 31.6451 13.6689 28.5209 16.7931L22.1569 23.157ZM8.00518 14.6813L19.3736 25.9403L15.7929 29.521C12.6688 32.6452 7.60343 32.6452 4.47924 29.521C1.35504 26.3968 1.35504 21.3315 4.47924 18.2073L8.00518 14.6813Z" stroke="black" stroke-width="3"/>
<path d="M9.78247 10.7832L22 23.0007" stroke="black" stroke-width="3"/>
</svg>
