<svg width="1393" height="457" viewBox="0 0 1393 457" fill="none" xmlns="http://www.w3.org/2000/svg">
<path d="M317.239 86.7383L398.893 169.457C412.841 185.601 426.014 195.222 438.412 198.322H383.395C385.203 198.322 386.785 197.967 388.141 197.257C390.789 195.707 390.821 193.059 388.238 189.314L302.225 101.461L289.73 113.666V180.693C290.182 186.053 293.121 190.702 298.545 194.641C301.321 196.643 304.034 198.096 306.681 199H249.824C252.471 198.096 255.151 196.643 257.863 194.641C263.352 190.702 266.29 186.053 266.678 180.693V18.9357C266.29 13.5761 263.352 8.92674 257.863 4.98774C255.151 2.98594 252.471 1.53303 249.824 0.628998H306.681C297.77 3.66397 292.313 8.76531 290.312 15.933L289.924 84.123L364.12 10.8962C367.477 6.5698 367.833 3.56711 365.185 1.88819C363.829 1.04873 362.15 0.628998 360.148 0.628998H415.165C402.767 3.79312 389.594 13.4146 375.646 29.4935L317.239 86.7383ZM488.663 18.9357V180.693C489.051 186.053 491.956 190.702 497.381 194.641C500.157 196.643 502.869 198.096 505.517 199H448.66C451.307 198.096 453.987 196.643 456.699 194.641C462.188 190.702 465.126 186.053 465.513 180.693V18.9357C465.126 13.5761 462.188 8.92674 456.699 4.98774C453.987 2.98594 451.307 1.53303 448.66 0.628998H505.517C502.869 1.53303 500.157 2.98594 497.381 4.98774C491.956 8.92674 489.051 13.5761 488.663 18.9357ZM660.669 0.628998H717.526C714.878 1.53303 712.199 2.98594 709.487 4.98774C703.998 8.92674 701.06 13.5761 700.672 18.9357V199L700.575 198.806V199L556.35 49.35V180.693C556.737 186.053 559.675 190.702 565.164 194.641C567.876 196.643 570.556 198.096 573.203 199H516.346C518.994 198.096 521.673 196.643 524.385 194.641C529.874 190.702 532.812 186.053 533.2 180.693V0.628998L677.522 152.119V18.9357C677.135 13.5761 674.197 8.92674 668.708 4.98774C665.996 2.98594 663.316 1.53303 660.669 0.628998ZM858.439 116.765C858.891 115.28 858.407 113.569 856.986 111.632C854.145 107.693 847.946 104.528 838.389 102.139H901.833C892.276 104.528 886.077 107.693 883.235 111.632C881.75 113.569 881.266 115.28 881.783 116.765V185.246C878.941 187.506 874.292 189.798 867.835 192.123C854.855 196.708 839.325 199 821.245 199C788.635 199 762.644 191.154 743.272 175.463C721.187 157.576 710.145 131.036 710.145 95.8432C709.37 79.958 713.148 64.1051 721.478 48.2845C738.203 16.5142 769.359 0.628998 814.949 0.628998C851.691 3.40568 874.679 6.18235 883.914 8.95903L877.23 52.837C875.874 45.6047 872.355 38.3724 866.672 31.1402C855.372 16.611 838.841 9.34647 817.08 9.34647C790.798 9.34647 770.07 16.9985 754.895 32.3025C739.526 47.8002 731.842 69.1096 731.842 96.2306C731.842 122.189 742.368 144.209 763.419 162.29C782.855 178.95 804.358 187.28 827.928 187.28C840.972 187.861 851.142 184.794 858.439 178.078V116.765ZM972.08 63.8901V185.264C972.371 189.285 974.551 192.774 978.622 195.729C980.705 197.231 982.74 198.322 984.727 199H942.064C944.051 198.322 946.061 197.231 948.096 195.729C952.215 192.774 954.419 189.285 954.71 185.264V63.8901C954.419 59.8686 952.215 56.38 948.096 53.4244C946.061 51.9224 944.051 50.8322 942.064 50.1539H984.727C982.74 50.8322 980.705 51.9224 978.622 53.4244C974.551 56.38 972.371 59.8686 972.08 63.8901ZM1101.14 50.1539H1143.81C1141.82 50.8322 1139.81 51.9224 1137.77 53.4244C1133.66 56.38 1131.45 59.8686 1131.16 63.8901V199L1131.09 198.855V199L1022.87 86.7113V185.264C1023.16 189.285 1025.36 192.774 1029.48 195.729C1031.52 197.231 1033.53 198.322 1035.51 199H992.852C994.839 198.322 996.849 197.231 998.884 195.729C1003 192.774 1005.21 189.285 1005.5 185.264V50.1539L1113.79 163.823V63.8901C1113.5 59.8686 1111.29 56.38 1107.18 53.4244C1105.14 51.9224 1103.13 50.8322 1101.14 50.1539ZM147.861 262.116L155.319 258.629L147.861 294.855C147.603 291.239 146.537 287.655 144.664 284.103C140.984 276.871 135.14 273.255 127.133 273.255H89.6475V275.58C89.5829 313.097 89.5183 347.321 89.4538 378.252V438.693C89.8412 444.053 92.7793 448.702 98.2681 452.641C100.98 454.643 103.66 456.096 106.308 457H49.4502C52.0978 456.096 54.8099 454.643 57.5865 452.641C63.0108 448.702 65.9489 444.053 66.4009 438.693V378.252C66.3363 347.321 66.2717 313.097 66.2072 275.58L66.1103 273.255H28.722C20.7149 273.255 14.8386 276.871 11.0933 284.103C9.28528 287.655 8.25209 291.239 7.9938 294.855L0.535513 258.629L7.9938 262.116H147.861ZM338.076 276.936V438.693C338.464 444.053 341.402 448.702 346.891 452.641C349.603 454.643 352.282 456.096 354.93 457H298.073C300.72 456.096 303.432 454.643 306.209 452.641C311.633 448.702 314.539 444.053 314.926 438.693V355.102H205.861V438.693C206.249 444.053 209.154 448.702 214.579 452.641C217.355 454.643 220.067 456.096 222.715 457H165.858C168.505 456.096 171.185 454.643 173.897 452.641C179.386 448.702 182.324 444.053 182.711 438.693V276.936C182.324 271.576 179.386 266.927 173.897 262.988C171.185 260.986 168.505 259.533 165.858 258.629H222.715C220.067 259.533 217.355 260.986 214.579 262.988C209.154 266.927 206.249 271.576 205.861 276.936V341.348H314.926V276.936C314.539 271.576 311.633 266.927 306.209 262.988C303.432 260.986 300.72 259.533 298.073 258.629H354.93C352.282 259.533 349.603 260.986 346.891 262.988C341.402 266.927 338.464 271.576 338.076 276.936ZM463.395 262.116L470.853 258.629L463.395 294.855C463.136 291.239 462.071 287.655 460.198 284.103C456.518 276.871 450.674 273.255 442.667 273.255H404.988V347.45H446.444C454.451 347.257 461.038 345.061 466.204 340.864L461.361 379.705C461.232 376.153 460.101 372.634 457.971 369.147C453.709 362.173 446.606 358.686 436.661 358.686H404.988V432.3C407.119 435.077 410.154 437.854 414.093 440.631C422.035 446.184 430.591 448.961 439.761 448.961C448.995 448.961 457.615 444.602 465.623 435.884C469.626 431.493 472.693 427.135 474.824 422.808L470.853 457H365.081C367.858 456.031 370.667 454.514 373.508 452.448C379.19 448.186 382.032 443.181 382.032 437.434C382.032 428.265 381.935 374.313 381.741 275.58C378.835 269.639 372.12 265.151 361.594 262.116H463.395ZM659.499 258.629H716.356C713.709 259.533 711.029 260.986 708.317 262.988C702.828 266.927 699.89 271.576 699.503 276.936V457L699.406 456.806V457L555.18 307.35V438.693C555.567 444.053 558.506 448.702 563.994 452.641C566.706 454.643 569.386 456.096 572.034 457H515.177C517.824 456.096 520.504 454.643 523.216 452.641C528.705 448.702 531.643 444.053 532.03 438.693V258.629L676.353 410.119V276.936C675.965 271.576 673.027 266.927 667.539 262.988C664.827 260.986 662.147 259.533 659.499 258.629ZM827.727 272.48V445.57C842.644 442.406 854.848 435.594 864.34 425.133C877.772 410.345 884.488 389.23 884.488 361.786C884.488 334.277 877.772 312.484 864.34 296.405C854.848 285.04 842.644 277.065 827.727 272.48ZM755.469 294.758C742.296 310.127 735.709 331.145 735.709 357.814C735.709 384.484 742.296 405.567 755.469 421.065C764.832 432.042 776.94 439.694 791.792 444.021V272.093C776.94 276.355 764.832 283.91 755.469 294.758ZM813.973 269.477V447.217C816.427 447.152 819.042 446.959 821.819 446.636V270.833C819.171 270.252 816.556 269.8 813.973 269.477ZM804.19 446.733V269.574C801.994 269.833 799.831 270.188 797.7 270.64V445.57C799.96 446.022 802.124 446.41 804.19 446.733ZM762.152 269.284C779.2 261.212 796.247 257.693 813.295 258.726C836.154 258.726 857.366 268.057 876.932 286.719C898.435 307.318 909.187 332.34 909.187 361.786C909.187 390.586 898.113 414.284 875.964 432.882C856.785 448.961 835.896 457 813.295 457C788.757 457 766.802 449.994 747.429 435.981C723.085 418.353 710.913 393.395 710.913 361.108C710.913 315.971 727.993 285.363 762.152 269.284ZM940.163 358.493H973.29C977.81 358.299 982.33 356.555 986.85 353.262C995.826 346.676 1000.31 335.537 1000.31 319.845C1000.31 302.733 995.697 289.302 986.463 279.551C978.907 271.608 970.448 267.637 961.085 267.637C951.722 267.637 946.459 267.895 945.297 268.412C942.391 269.639 940.938 273.772 940.938 280.81C940.938 291.077 940.68 316.972 940.163 358.493ZM993.437 365.079C1000.09 371.214 1007.71 380.609 1016.3 393.266C1027.47 409.732 1037.28 422.098 1045.74 430.363C1060.85 445.086 1074.67 451.156 1087.2 448.573C1086.62 449.929 1084.91 451.317 1082.06 452.738C1076.51 455.579 1068.18 457 1057.07 457C1045.97 457 1032.47 447.475 1016.59 428.426C1008.64 418.869 1001.83 409.312 996.149 399.755C993.63 395.17 989.401 390.618 983.46 386.098C971.578 376.928 957.146 372.344 940.163 372.344V438.79C940.551 444.15 943.456 448.799 948.881 452.738C951.593 454.675 954.273 456.096 956.92 457H900.45C903.098 456.096 905.778 454.675 908.49 452.738C913.914 448.799 916.82 444.15 917.207 438.79V278.098C916.82 272.803 913.914 268.186 908.49 264.247C905.778 262.245 903.098 260.792 900.45 259.888H940.163C954.047 257.628 967.93 257.919 981.813 260.76C1009.64 266.442 1023.56 282.069 1023.56 307.641C1024.01 312.29 1023.08 318.198 1020.75 325.366C1016.23 339.637 1007.13 352.875 993.437 365.079ZM1185.4 262.116L1192.85 258.629L1185.4 294.855C1185.14 291.239 1184.07 287.655 1182.2 284.103C1178.52 276.871 1172.67 273.255 1164.67 273.255H1127.18V275.58C1127.12 313.097 1127.05 347.321 1126.99 378.252V438.693C1127.38 444.053 1130.31 448.702 1135.8 452.641C1138.51 454.643 1141.19 456.096 1143.84 457H1086.98C1089.63 456.096 1092.34 454.643 1095.12 452.641C1100.55 448.702 1103.48 444.053 1103.94 438.693V378.252C1103.87 347.321 1103.81 313.097 1103.74 275.58L1103.64 273.255H1066.26C1058.25 273.255 1052.37 276.871 1048.63 284.103C1046.82 287.655 1045.79 291.239 1045.53 294.855L1038.07 258.629L1045.53 262.116H1185.4ZM1375.61 276.936V438.693C1376 444.053 1378.94 448.702 1384.43 452.641C1387.14 454.643 1389.82 456.096 1392.46 457H1335.61C1338.25 456.096 1340.97 454.643 1343.74 452.641C1349.17 448.702 1352.07 444.053 1352.46 438.693V355.102H1243.4V438.693C1243.78 444.053 1246.69 448.702 1252.11 452.641C1254.89 454.643 1257.6 456.096 1260.25 457H1203.39C1206.04 456.096 1208.72 454.643 1211.43 452.641C1216.92 448.702 1219.86 444.053 1220.25 438.693V276.936C1219.86 271.576 1216.92 266.927 1211.43 262.988C1208.72 260.986 1206.04 259.533 1203.39 258.629H1260.25C1257.6 259.533 1254.89 260.986 1252.11 262.988C1246.69 266.927 1243.78 271.576 1243.4 276.936V341.348H1352.46V276.936C1352.07 271.576 1349.17 266.927 1343.74 262.988C1340.97 260.986 1338.25 259.533 1335.61 258.629H1392.46C1389.82 259.533 1387.14 260.986 1384.43 262.988C1378.94 266.927 1376 271.576 1375.61 276.936Z" fill="url(#paint0_linear_38_41)"/>
<defs>
<linearGradient id="paint0_linear_38_41" x1="696.5" y1="-12" x2="696.5" y2="504" gradientUnits="userSpaceOnUse">
<stop stop-color="white"/>
<stop offset="1" stop-color="#2F2F2F"/>
</linearGradient>
</defs>
</svg>
